<mxfile host="app.diagrams.net" modified="2024-01-22T15:07:34.731Z" agent="Mozilla/5.0 (Windows NT 10.0; Win64; x64) AppleWebKit/537.36 (KHTML, like Gecko) Chrome/120.0.0.0 Safari/537.36" etag="VQJTPXX4qy4_WX-yieX0" version="22.1.21" type="github">
  <diagram name="Page-1" id="FkymMd74IcqhlL0QFmbV">
    <mxGraphModel dx="1372" dy="820" grid="0" gridSize="10" guides="1" tooltips="1" connect="1" arrows="1" fold="1" page="1" pageScale="1" pageWidth="850" pageHeight="1100" math="0" shadow="0">
      <root>
        <mxCell id="0" />
        <mxCell id="1" parent="0" />
        <mxCell id="BtggJ6Ag97EvQcYOxrzJ-2" value="" style="image;html=1;image=img/lib/clip_art/people/Suit_Man_128x128.png" vertex="1" parent="1">
          <mxGeometry x="40" y="240" width="80" height="80" as="geometry" />
        </mxCell>
        <mxCell id="BtggJ6Ag97EvQcYOxrzJ-9" style="edgeStyle=orthogonalEdgeStyle;rounded=0;orthogonalLoop=1;jettySize=auto;html=1;" edge="1" parent="1" source="BtggJ6Ag97EvQcYOxrzJ-13" target="BtggJ6Ag97EvQcYOxrzJ-4">
          <mxGeometry relative="1" as="geometry" />
        </mxCell>
        <mxCell id="BtggJ6Ag97EvQcYOxrzJ-3" value="EC2" style="outlineConnect=0;dashed=0;verticalLabelPosition=bottom;verticalAlign=top;align=center;html=1;shape=mxgraph.aws3.ec2;fillColor=#F58534;gradientColor=none;" vertex="1" parent="1">
          <mxGeometry x="280" y="233.5" width="76.5" height="93" as="geometry" />
        </mxCell>
        <mxCell id="BtggJ6Ag97EvQcYOxrzJ-7" style="edgeStyle=orthogonalEdgeStyle;rounded=0;orthogonalLoop=1;jettySize=auto;html=1;exitX=0;exitY=0;exitDx=0;exitDy=0;" edge="1" parent="1" source="BtggJ6Ag97EvQcYOxrzJ-4">
          <mxGeometry relative="1" as="geometry">
            <mxPoint x="580" y="250" as="targetPoint" />
          </mxGeometry>
        </mxCell>
        <mxCell id="BtggJ6Ag97EvQcYOxrzJ-4" value="DB" style="image;aspect=fixed;perimeter=ellipsePerimeter;html=1;align=center;shadow=0;dashed=0;spacingTop=3;image=img/lib/active_directory/database_partition_2.svg;" vertex="1" parent="1">
          <mxGeometry x="550" y="230" width="135.14" height="100" as="geometry" />
        </mxCell>
        <mxCell id="BtggJ6Ag97EvQcYOxrzJ-5" value="" style="endArrow=classic;html=1;rounded=0;" edge="1" parent="1" source="BtggJ6Ag97EvQcYOxrzJ-2" target="BtggJ6Ag97EvQcYOxrzJ-3">
          <mxGeometry width="50" height="50" relative="1" as="geometry">
            <mxPoint x="400" y="430" as="sourcePoint" />
            <mxPoint x="450" y="380" as="targetPoint" />
          </mxGeometry>
        </mxCell>
        <mxCell id="BtggJ6Ag97EvQcYOxrzJ-11" value="Text" style="edgeLabel;html=1;align=center;verticalAlign=middle;resizable=0;points=[];" vertex="1" connectable="0" parent="BtggJ6Ag97EvQcYOxrzJ-5">
          <mxGeometry x="-0.1125" y="-3" relative="1" as="geometry">
            <mxPoint as="offset" />
          </mxGeometry>
        </mxCell>
        <mxCell id="BtggJ6Ag97EvQcYOxrzJ-10" value="Get(userId)" style="edgeLabel;html=1;align=center;verticalAlign=middle;resizable=0;points=[];fontSize=16;" vertex="1" connectable="0" parent="BtggJ6Ag97EvQcYOxrzJ-5">
          <mxGeometry x="-0.325" y="-1" relative="1" as="geometry">
            <mxPoint as="offset" />
          </mxGeometry>
        </mxCell>
        <mxCell id="BtggJ6Ag97EvQcYOxrzJ-12" value="&lt;ul&gt;&lt;li&gt;&lt;b&gt;Name&lt;/b&gt;&lt;/li&gt;&lt;li&gt;&lt;b&gt;Age&lt;/b&gt;&lt;/li&gt;&lt;li&gt;&lt;b&gt;Address&lt;/b&gt;&lt;/li&gt;&lt;li&gt;&lt;b&gt;Contact Details&lt;/b&gt;&lt;/li&gt;&lt;/ul&gt;" style="text;html=1;strokeColor=none;fillColor=none;align=left;verticalAlign=middle;whiteSpace=wrap;rounded=0;" vertex="1" parent="1">
          <mxGeometry x="270" y="80" width="140" height="110" as="geometry" />
        </mxCell>
        <mxCell id="BtggJ6Ag97EvQcYOxrzJ-14" value="" style="edgeStyle=orthogonalEdgeStyle;rounded=0;orthogonalLoop=1;jettySize=auto;html=1;" edge="1" parent="1" source="BtggJ6Ag97EvQcYOxrzJ-3" target="BtggJ6Ag97EvQcYOxrzJ-13">
          <mxGeometry relative="1" as="geometry">
            <mxPoint x="357" y="280" as="sourcePoint" />
            <mxPoint x="550" y="280" as="targetPoint" />
          </mxGeometry>
        </mxCell>
        <mxCell id="BtggJ6Ag97EvQcYOxrzJ-13" value="Cache" style="image;sketch=0;aspect=fixed;html=1;points=[];align=center;fontSize=12;image=img/lib/mscae/Cache_Redis_Product.svg;" vertex="1" parent="1">
          <mxGeometry x="410" y="259" width="50" height="42" as="geometry" />
        </mxCell>
        <mxCell id="BtggJ6Ag97EvQcYOxrzJ-15" value="" style="outlineConnect=0;dashed=0;verticalLabelPosition=bottom;verticalAlign=top;align=center;html=1;shape=mxgraph.aws3.ec2;fillColor=#F58534;gradientColor=none;" vertex="1" parent="1">
          <mxGeometry x="36.5" y="443.89" width="120" height="149.62" as="geometry" />
        </mxCell>
        <mxCell id="BtggJ6Ag97EvQcYOxrzJ-28" style="edgeStyle=orthogonalEdgeStyle;rounded=0;orthogonalLoop=1;jettySize=auto;html=1;strokeWidth=2;" edge="1" parent="1" target="BtggJ6Ag97EvQcYOxrzJ-22">
          <mxGeometry relative="1" as="geometry">
            <mxPoint x="161" y="761" as="sourcePoint" />
            <Array as="points">
              <mxPoint x="161" y="726" />
              <mxPoint x="692" y="726" />
            </Array>
          </mxGeometry>
        </mxCell>
        <mxCell id="BtggJ6Ag97EvQcYOxrzJ-16" value="" style="outlineConnect=0;dashed=0;verticalLabelPosition=bottom;verticalAlign=top;align=center;html=1;shape=mxgraph.aws3.ec2;fillColor=#F58534;gradientColor=none;" vertex="1" parent="1">
          <mxGeometry x="80" y="740" width="76.5" height="93" as="geometry" />
        </mxCell>
        <mxCell id="BtggJ6Ag97EvQcYOxrzJ-17" value="&lt;b&gt;&lt;font style=&quot;font-size: 17px;&quot;&gt;Read through Stratergy&lt;/font&gt;&lt;/b&gt;" style="text;html=1;align=center;verticalAlign=middle;resizable=0;points=[];autosize=1;strokeColor=none;fillColor=none;" vertex="1" parent="1">
          <mxGeometry x="13.25" y="408" width="210" height="30" as="geometry" />
        </mxCell>
        <mxCell id="BtggJ6Ag97EvQcYOxrzJ-23" style="edgeStyle=orthogonalEdgeStyle;rounded=0;orthogonalLoop=1;jettySize=auto;html=1;strokeWidth=3;" edge="1" parent="1" source="BtggJ6Ag97EvQcYOxrzJ-18" target="BtggJ6Ag97EvQcYOxrzJ-21">
          <mxGeometry relative="1" as="geometry" />
        </mxCell>
        <mxCell id="BtggJ6Ag97EvQcYOxrzJ-24" style="edgeStyle=orthogonalEdgeStyle;rounded=0;orthogonalLoop=1;jettySize=auto;html=1;verticalAlign=top;strokeWidth=3;" edge="1" parent="1" source="BtggJ6Ag97EvQcYOxrzJ-18" target="BtggJ6Ag97EvQcYOxrzJ-15">
          <mxGeometry relative="1" as="geometry">
            <mxPoint x="230" y="530" as="targetPoint" />
            <Array as="points">
              <mxPoint x="260" y="528" />
              <mxPoint x="260" y="530" />
            </Array>
          </mxGeometry>
        </mxCell>
        <mxCell id="BtggJ6Ag97EvQcYOxrzJ-18" value="" style="image;sketch=0;aspect=fixed;html=1;points=[];align=center;fontSize=12;image=img/lib/mscae/Cache_Redis_Product.svg;" vertex="1" parent="1">
          <mxGeometry x="356.5" y="474.01" width="127.98" height="107.5" as="geometry" />
        </mxCell>
        <mxCell id="BtggJ6Ag97EvQcYOxrzJ-19" value="" style="image;sketch=0;aspect=fixed;html=1;points=[];align=center;fontSize=12;image=img/lib/mscae/Cache_Redis_Product.svg;" vertex="1" parent="1">
          <mxGeometry x="400" y="765.5" width="50" height="42" as="geometry" />
        </mxCell>
        <mxCell id="BtggJ6Ag97EvQcYOxrzJ-20" style="edgeStyle=orthogonalEdgeStyle;rounded=0;orthogonalLoop=1;jettySize=auto;html=1;entryX=-0.04;entryY=0.488;entryDx=0;entryDy=0;entryPerimeter=0;verticalAlign=bottom;strokeWidth=3;" edge="1" parent="1" source="BtggJ6Ag97EvQcYOxrzJ-15">
          <mxGeometry relative="1" as="geometry">
            <mxPoint x="145.12" y="500.00000000000006" as="sourcePoint" />
            <mxPoint x="356.5007999999999" y="511.27000000000004" as="targetPoint" />
            <Array as="points">
              <mxPoint x="265" y="500" />
              <mxPoint x="265" y="511" />
            </Array>
          </mxGeometry>
        </mxCell>
        <mxCell id="BtggJ6Ag97EvQcYOxrzJ-25" style="edgeStyle=orthogonalEdgeStyle;rounded=0;orthogonalLoop=1;jettySize=auto;html=1;exitX=0;exitY=1;exitDx=0;exitDy=0;strokeWidth=3;" edge="1" parent="1" source="BtggJ6Ag97EvQcYOxrzJ-21">
          <mxGeometry relative="1" as="geometry">
            <mxPoint x="480" y="545.27" as="targetPoint" />
            <mxPoint x="673.9856423898723" y="569.51" as="sourcePoint" />
            <Array as="points">
              <mxPoint x="710" y="574" />
              <mxPoint x="710" y="570" />
              <mxPoint x="480" y="570" />
            </Array>
          </mxGeometry>
        </mxCell>
        <mxCell id="BtggJ6Ag97EvQcYOxrzJ-21" value="" style="image;aspect=fixed;perimeter=ellipsePerimeter;html=1;align=center;shadow=0;dashed=0;spacingTop=3;image=img/lib/active_directory/database_server.svg;" vertex="1" parent="1">
          <mxGeometry x="679.9999999999999" y="462.01" width="107.83" height="131.5" as="geometry" />
        </mxCell>
        <mxCell id="BtggJ6Ag97EvQcYOxrzJ-29" style="edgeStyle=orthogonalEdgeStyle;rounded=0;orthogonalLoop=1;jettySize=auto;html=1;strokeWidth=2;" edge="1" parent="1" source="BtggJ6Ag97EvQcYOxrzJ-22" target="BtggJ6Ag97EvQcYOxrzJ-16">
          <mxGeometry relative="1" as="geometry">
            <Array as="points">
              <mxPoint x="692" y="865" />
              <mxPoint x="118" y="865" />
            </Array>
          </mxGeometry>
        </mxCell>
        <mxCell id="BtggJ6Ag97EvQcYOxrzJ-22" value="" style="image;aspect=fixed;perimeter=ellipsePerimeter;html=1;align=center;shadow=0;dashed=0;spacingTop=3;image=img/lib/active_directory/database_server.svg;" vertex="1" parent="1">
          <mxGeometry x="661" y="749.31" width="61" height="74.39" as="geometry" />
        </mxCell>
        <mxCell id="BtggJ6Ag97EvQcYOxrzJ-27" value="&lt;b&gt;&lt;font style=&quot;font-size: 17px;&quot;&gt;Read through Stratergy&lt;/font&gt;&lt;/b&gt;" style="text;html=1;align=center;verticalAlign=middle;resizable=0;points=[];autosize=1;strokeColor=none;fillColor=none;" vertex="1" parent="1">
          <mxGeometry x="13.25" y="680" width="210" height="30" as="geometry" />
        </mxCell>
      </root>
    </mxGraphModel>
  </diagram>
</mxfile>
